# xmcd
#
# Track frame offsets: 
#        150
#        16035
#        33426
#        49433
#        67202
#        83143
#        97432
#        118091
#        138340
#        160396
#        175012
#        198934
#        210070
#        225081
#        239031
#
# Disc length: 3609 seconds
#
# Revision: 1
# Processed by: cddbd v1.5.2PL0 Copyright (c) Steve Scherf et al.
# Submitted via: ExactAudioCopyFreeDBPlugin 1.0
#
DISCID=ca0e170f
DTITLE=Bizzy Bone - The Beginning And The End
DYEAR=2004
DGENRE=Rap
TTITLE0=Time Travel feat. Prince Rasu
TTITLE1=Stress Builds feat Big B, Prince Rasu
TTITLE2=TryHustleMe feat. Hollis Jae
TTITLE3=Weed Song feat. Big B, Capo, Prince Rasu, Weezy
TTITLE4=Split Personalities feat. Capo
TTITLE5=Be Careful Pt. 2 feat. Big B, Prince Rasu
TTITLE6=Ride Or Die feat. Big B, Capo, Prince Rasu, Weezy
TTITLE7=Head To The Ground Ft. Layzie Bone
TTITLE8=Satan's Disciples
TTITLE9=Feelin' Lovely
TTITLE10=Hellafied Game
TTITLE11=Hit The Reefah feat. Big B
TTITLE12=Good Vs. Evil feat. Prince Rasu
TTITLE13=Skit
TTITLE14=? Do We Die And Prayer
EXTD=
EXTT0=
EXTT1=
EXTT2=
EXTT3=
EXTT4=
EXTT5=
EXTT6=
EXTT7=
EXTT8=
EXTT9=
EXTT10=
EXTT11=
EXTT12=
EXTT13=
EXTT14=
PLAYORDER=
